<?xml version="1.0" encoding="utf-8"?>
<!-- Generator: Adobe Illustrator 26.0.1, SVG Export Plug-In . SVG Version: 6.00 Build 0)  -->
<svg version="1.1" id="Layer_1" xmlns="http://www.w3.org/2000/svg" xmlns:xlink="http://www.w3.org/1999/xlink" x="0px" y="0px"
	 viewBox="0 0 249.6 44.5" style="enable-background:new 0 0 249.6 44.5;" xml:space="preserve">
<style type="text/css">
	.st0{fill:url(#SVGID_1_);}
	.st1{fill:url(#SVGID_00000024689131080530473830000009404008158047765165_);}
	.st2{fill:url(#SVGID_00000100359910841355152070000005922146837744238765_);}
	.st3{fill:url(#SVGID_00000000223605989823002440000011082955162895199413_);}
	.st4{fill:url(#SVGID_00000080888036207069326630000004992513723611347102_);}
	.st5{fill:url(#SVGID_00000042725956301379594180000017563568467790905530_);}
	.st6{fill:url(#SVGID_00000055684996841437610710000000908321567714184342_);}
	.st7{fill:url(#SVGID_00000008127610863476679340000000404625694687552134_);}
	.st8{fill:url(#SVGID_00000078033705572259705860000015548072155443069119_);}
	.st9{fill:url(#SVGID_00000119807170600565220080000014783631783615250331_);}
	.st10{fill:url(#SVGID_00000005973825967268864910000013150190139675770291_);}
	.st11{fill:url(#SVGID_00000102528970879541139600000014160882652767584412_);}
	.st12{fill:url(#SVGID_00000089552452032859330380000016777690358458914745_);}
	.st13{fill:url(#SVGID_00000107554012279599958540000007400548754847469711_);}
	.st14{fill:url(#SVGID_00000120525939497249676920000015614189117008203413_);}
	.st15{fill:url(#SVGID_00000122687062745449959280000002082797999199010979_);}
	.st16{fill:url(#SVGID_00000034067287131596212090000006422665533206897032_);}
	.st17{fill:url(#SVGID_00000031924206788408269380000002836882669048870564_);}
	.st18{fill:url(#SVGID_00000161601162158074016100000016806343789073032108_);}
	.st19{fill:url(#SVGID_00000116922258415664830300000004457626512066227370_);}
	.st20{fill:url(#SVGID_00000157266400406847365460000000757821555492458381_);}
	.st21{fill:url(#SVGID_00000115507669690501803520000005017754743884029350_);}
	.st22{fill:url(#SVGID_00000098214272330088614010000015451651914530798467_);}
	.st23{fill:url(#SVGID_00000031169818658099533330000001351376093164479642_);}
	.st24{fill:url(#SVGID_00000172400316939608190740000010244189159499183515_);}
	.st25{fill:url(#SVGID_00000002353812262914993570000003353912681696394908_);}
	.st26{fill:url(#SVGID_00000116212211462008331310000001892920852357247892_);}
	.st27{fill:url(#SVGID_00000003089932608375156410000003515013363494527158_);}
	.st28{fill:url(#SVGID_00000036958957528322801590000014736697135257532061_);}
	.st29{fill:url(#SVGID_00000047027109598830830590000014748313202673977496_);}
	.st30{fill:url(#SVGID_00000128466642496547219860000011600608509081058719_);}
	.st31{fill:url(#SVGID_00000117641003640832749310000006601986456344466050_);}
	.st32{fill:url(#SVGID_00000170993840022651428190000007249187156266279579_);}
	.st33{fill:url(#SVGID_00000093174965404570814680000002123054219192447876_);}
	.st34{fill:url(#SVGID_00000027596742453638144250000009156842500556667272_);}
	.st35{fill:url(#SVGID_00000179633083330644252080000005265600944490962841_);}
	.st36{fill:#FFFFFF;}
	.st37{fill:url(#SVGID_00000118355179504124148140000012134037653654510748_);}
	.st38{fill:url(#SVGID_00000127020566232075195820000001809971356685746341_);}
	.st39{fill:url(#SVGID_00000090273838666804632070000012898546071760655252_);}
	.st40{fill:url(#SVGID_00000097496446525086060650000005609795168755073700_);}
	.st41{fill:url(#SVGID_00000042727723788787393440000013908713190235067794_);}
	.st42{fill:url(#SVGID_00000111889330932133036480000005561518110616480141_);}
	.st43{fill:url(#SVGID_00000005228812340579276090000013511728457765665191_);}
	.st44{fill:url(#SVGID_00000066476567709824034780000018418898730787086215_);}
	.st45{fill:url(#SVGID_00000146488466411224302570000014556182919661584296_);}
</style>
<g>
	<g>
		<linearGradient id="SVGID_1_" gradientUnits="userSpaceOnUse" x1="23.5391" y1="40.3989" x2="30.0592" y2="40.3989">
			<stop  offset="0" style="stop-color:#3663D8"/>
			<stop  offset="0.56" style="stop-color:#77BEFF"/>
			<stop  offset="0.99" style="stop-color:#00D1FF"/>
		</linearGradient>
		<circle class="st0" cx="26.8" cy="40.4" r="3.3"/>
		
			<linearGradient id="SVGID_00000085932813831864743730000012735865321500943267_" gradientUnits="userSpaceOnUse" x1="31.6436" y1="38.8081" x2="37.0942" y2="38.8081">
			<stop  offset="0" style="stop-color:#3663D8"/>
			<stop  offset="0.56" style="stop-color:#77BEFF"/>
			<stop  offset="0.99" style="stop-color:#00D1FF"/>
		</linearGradient>
		<circle style="fill:url(#SVGID_00000085932813831864743730000012735865321500943267_);" cx="34.4" cy="38.8" r="2.7"/>
		
			<linearGradient id="SVGID_00000106130741088064793240000000004875417198079414_" gradientUnits="userSpaceOnUse" x1="38.0985" y1="34.6873" x2="41.665" y2="34.6873">
			<stop  offset="0" style="stop-color:#3663D8"/>
			<stop  offset="0.56" style="stop-color:#77BEFF"/>
			<stop  offset="0.99" style="stop-color:#00D1FF"/>
		</linearGradient>
		<circle style="fill:url(#SVGID_00000106130741088064793240000000004875417198079414_);" cx="39.9" cy="34.7" r="1.8"/>
		
			<linearGradient id="SVGID_00000181085477949169097290000001495022967832438423_" gradientUnits="userSpaceOnUse" x1="41.841" y1="30.2439" x2="44.0512" y2="30.2439">
			<stop  offset="0" style="stop-color:#3663D8"/>
			<stop  offset="0.56" style="stop-color:#77BEFF"/>
			<stop  offset="0.99" style="stop-color:#00D1FF"/>
		</linearGradient>
		<circle style="fill:url(#SVGID_00000181085477949169097290000001495022967832438423_);" cx="42.9" cy="30.2" r="1.1"/>
		
			<linearGradient id="SVGID_00000003783633936123871360000004674181631022492844_" gradientUnits="userSpaceOnUse" x1="43.3267" y1="26.7206" x2="44.7757" y2="26.7206">
			<stop  offset="0" style="stop-color:#3663D8"/>
			<stop  offset="0.56" style="stop-color:#77BEFF"/>
			<stop  offset="0.99" style="stop-color:#00D1FF"/>
		</linearGradient>
		<circle style="fill:url(#SVGID_00000003783633936123871360000004674181631022492844_);" cx="44.1" cy="26.7" r="0.7"/>
		
			<linearGradient id="SVGID_00000007424780620951668270000011116019034617674116_" gradientUnits="userSpaceOnUse" x1="33.3225" y1="31.1208" x2="36.889" y2="31.1208">
			<stop  offset="0" style="stop-color:#3663D8"/>
			<stop  offset="0.56" style="stop-color:#77BEFF"/>
			<stop  offset="0.99" style="stop-color:#00D1FF"/>
		</linearGradient>
		<circle style="fill:url(#SVGID_00000007424780620951668270000011116019034617674116_);" cx="35.1" cy="31.1" r="1.8"/>
		
			<linearGradient id="SVGID_00000150074633279758397270000005312594888179783580_" gradientUnits="userSpaceOnUse" x1="36.4848" y1="25.5331" x2="41.665" y2="25.5331">
			<stop  offset="0" style="stop-color:#3663D8"/>
			<stop  offset="0.56" style="stop-color:#77BEFF"/>
			<stop  offset="0.99" style="stop-color:#00D1FF"/>
		</linearGradient>
		<circle style="fill:url(#SVGID_00000150074633279758397270000005312594888179783580_);" cx="39.1" cy="25.5" r="2.6"/>
		
			<linearGradient id="SVGID_00000018196210634277651700000006131756092195862939_" gradientUnits="userSpaceOnUse" x1="37.6691" y1="17.8598" x2="43.9039" y2="17.8598">
			<stop  offset="0" style="stop-color:#3663D8"/>
			<stop  offset="0.56" style="stop-color:#77BEFF"/>
			<stop  offset="0.99" style="stop-color:#00D1FF"/>
		</linearGradient>
		<circle style="fill:url(#SVGID_00000018196210634277651700000006131756092195862939_);" cx="40.8" cy="17.9" r="3.1"/>
		
			<linearGradient id="SVGID_00000145058825542452013290000001373748871309698484_" gradientUnits="userSpaceOnUse" x1="36.5891" y1="10.2126" x2="41.7171" y2="10.2126">
			<stop  offset="0" style="stop-color:#3663D8"/>
			<stop  offset="0.56" style="stop-color:#77BEFF"/>
			<stop  offset="0.99" style="stop-color:#00D1FF"/>
		</linearGradient>
		<circle style="fill:url(#SVGID_00000145058825542452013290000001373748871309698484_);" cx="39.2" cy="10.2" r="2.6"/>
		
			<linearGradient id="SVGID_00000127005468375339445530000005489296477966679180_" gradientUnits="userSpaceOnUse" x1="33.2392" y1="4.7179" x2="37.0465" y2="4.7179">
			<stop  offset="0" style="stop-color:#3663D8"/>
			<stop  offset="0.56" style="stop-color:#77BEFF"/>
			<stop  offset="0.99" style="stop-color:#00D1FF"/>
		</linearGradient>
		<circle style="fill:url(#SVGID_00000127005468375339445530000005489296477966679180_);" cx="35.1" cy="4.7" r="1.9"/>
		
			<linearGradient id="SVGID_00000027564348770154144320000002682060215963815056_" gradientUnits="userSpaceOnUse" x1="29.5165" y1="1.6195" x2="31.3992" y2="1.6195">
			<stop  offset="0" style="stop-color:#3663D8"/>
			<stop  offset="0.56" style="stop-color:#77BEFF"/>
			<stop  offset="0.99" style="stop-color:#00D1FF"/>
		</linearGradient>
		<circle style="fill:url(#SVGID_00000027564348770154144320000002682060215963815056_);" cx="30.5" cy="1.6" r="0.9"/>
		
			<linearGradient id="SVGID_00000021822983991338529680000014059409102647880327_" gradientUnits="userSpaceOnUse" x1="26.4695" y1="0.6035" x2="27.6765" y2="0.6035">
			<stop  offset="0" style="stop-color:#3663D8"/>
			<stop  offset="0.56" style="stop-color:#77BEFF"/>
			<stop  offset="0.99" style="stop-color:#00D1FF"/>
		</linearGradient>
		<circle style="fill:url(#SVGID_00000021822983991338529680000014059409102647880327_);" cx="27.1" cy="0.6" r="0.6"/>
		
			<linearGradient id="SVGID_00000131360367759705619120000016168722398500496570_" gradientUnits="userSpaceOnUse" x1="29.7416" y1="33.9567" x2="31.6243" y2="33.9567">
			<stop  offset="0" style="stop-color:#3663D8"/>
			<stop  offset="0.56" style="stop-color:#77BEFF"/>
			<stop  offset="0.99" style="stop-color:#00D1FF"/>
		</linearGradient>
		<circle style="fill:url(#SVGID_00000131360367759705619120000016168722398500496570_);" cx="30.7" cy="34" r="0.9"/>
		
			<linearGradient id="SVGID_00000037657897970292096080000006505134612796906910_" gradientUnits="userSpaceOnUse" x1="26.5369" y1="34.8981" x2="27.744" y2="34.8981">
			<stop  offset="0" style="stop-color:#3663D8"/>
			<stop  offset="0.56" style="stop-color:#77BEFF"/>
			<stop  offset="0.99" style="stop-color:#00D1FF"/>
		</linearGradient>
		<circle style="fill:url(#SVGID_00000037657897970292096080000006505134612796906910_);" cx="27.1" cy="34.9" r="0.6"/>
		
			<linearGradient id="SVGID_00000043415610962457312120000009004922456579552135_" gradientUnits="userSpaceOnUse" x1="16.3629" y1="38.6418" x2="21.7485" y2="38.6418">
			<stop  offset="0" style="stop-color:#3663D8"/>
			<stop  offset="0.56" style="stop-color:#77BEFF"/>
			<stop  offset="0.99" style="stop-color:#00D1FF"/>
		</linearGradient>
		<circle style="fill:url(#SVGID_00000043415610962457312120000009004922456579552135_);" cx="19.1" cy="38.6" r="2.7"/>
		
			<linearGradient id="SVGID_00000118371067141831887660000010504304438690871445_" gradientUnits="userSpaceOnUse" x1="11.6408" y1="34.6873" x2="15.4908" y2="34.6873">
			<stop  offset="0" style="stop-color:#3663D8"/>
			<stop  offset="0.56" style="stop-color:#77BEFF"/>
			<stop  offset="0.99" style="stop-color:#00D1FF"/>
		</linearGradient>
		<circle style="fill:url(#SVGID_00000118371067141831887660000010504304438690871445_);" cx="13.6" cy="34.7" r="1.9"/>
		
			<linearGradient id="SVGID_00000164514518187693098750000010156744723868264591_" gradientUnits="userSpaceOnUse" x1="9.5755" y1="30.2197" x2="11.9319" y2="30.2197">
			<stop  offset="0" style="stop-color:#3663D8"/>
			<stop  offset="0.56" style="stop-color:#77BEFF"/>
			<stop  offset="0.99" style="stop-color:#00D1FF"/>
		</linearGradient>
		<circle style="fill:url(#SVGID_00000164514518187693098750000010156744723868264591_);" cx="10.8" cy="30.2" r="1.2"/>
		
			<linearGradient id="SVGID_00000136398592960173501090000006073623928572535468_" gradientUnits="userSpaceOnUse" x1="8.8978" y1="26.7338" x2="10.3602" y2="26.7338">
			<stop  offset="0" style="stop-color:#3663D8"/>
			<stop  offset="0.56" style="stop-color:#77BEFF"/>
			<stop  offset="0.99" style="stop-color:#00D1FF"/>
		</linearGradient>
		<circle style="fill:url(#SVGID_00000136398592960173501090000006073623928572535468_);" cx="9.6" cy="26.7" r="0.7"/>
		
			<linearGradient id="SVGID_00000062876136021401471770000008917425533503139499_" gradientUnits="userSpaceOnUse" x1="34.4261" y1="17.575" x2="35.8597" y2="17.575">
			<stop  offset="0" style="stop-color:#3663D8"/>
			<stop  offset="0.56" style="stop-color:#77BEFF"/>
			<stop  offset="0.99" style="stop-color:#00D1FF"/>
		</linearGradient>
		<circle style="fill:url(#SVGID_00000062876136021401471770000008917425533503139499_);" cx="35.1" cy="17.6" r="0.7"/>
		
			<linearGradient id="SVGID_00000019661207699147482340000013325376617405162675_" gradientUnits="userSpaceOnUse" x1="32.9403" y1="14.0806" x2="35.025" y2="14.0806">
			<stop  offset="0" style="stop-color:#3663D8"/>
			<stop  offset="0.56" style="stop-color:#77BEFF"/>
			<stop  offset="0.99" style="stop-color:#00D1FF"/>
		</linearGradient>
		<circle style="fill:url(#SVGID_00000019661207699147482340000013325376617405162675_);" cx="34" cy="14.1" r="1"/>
		
			<linearGradient id="SVGID_00000021814831504974175560000009004670737909464205_" gradientUnits="userSpaceOnUse" x1="29.3339" y1="8.9578" x2="32.862" y2="10.024">
			<stop  offset="0" style="stop-color:#3663D8"/>
			<stop  offset="0.56" style="stop-color:#77BEFF"/>
			<stop  offset="0.99" style="stop-color:#00D1FF"/>
		</linearGradient>
		<circle style="fill:url(#SVGID_00000021814831504974175560000009004670737909464205_);" cx="31.1" cy="9.5" r="1.8"/>
		
			<linearGradient id="SVGID_00000128445090477767623740000000567527383152013188_" gradientUnits="userSpaceOnUse" x1="23.0818" y1="4.6798" x2="28.1089" y2="6.199">
			<stop  offset="0" style="stop-color:#3663D8"/>
			<stop  offset="0.56" style="stop-color:#77BEFF"/>
			<stop  offset="0.99" style="stop-color:#00D1FF"/>
		</linearGradient>
		<circle style="fill:url(#SVGID_00000128445090477767623740000000567527383152013188_);" cx="25.6" cy="5.4" r="2.6"/>
		
			<linearGradient id="SVGID_00000051355408743548756960000003517773647579429509_" gradientUnits="userSpaceOnUse" x1="14.6778" y1="3.8558" x2="21.0081" y2="3.6838">
			<stop  offset="0" style="stop-color:#3663D8"/>
			<stop  offset="0.56" style="stop-color:#77BEFF"/>
			<stop  offset="0.99" style="stop-color:#00D1FF"/>
		</linearGradient>
		<circle style="fill:url(#SVGID_00000051355408743548756960000003517773647579429509_);" cx="17.8" cy="3.8" r="3.2"/>
		
			<linearGradient id="SVGID_00000150822641848529264050000001098907142128353666_" gradientUnits="userSpaceOnUse" x1="7.6685" y1="5.5107" x2="12.9169" y2="5.3681">
			<stop  offset="0" style="stop-color:#3663D8"/>
			<stop  offset="0.56" style="stop-color:#77BEFF"/>
			<stop  offset="0.99" style="stop-color:#00D1FF"/>
		</linearGradient>
		<circle style="fill:url(#SVGID_00000150822641848529264050000001098907142128353666_);" cx="10.3" cy="5.4" r="2.6"/>
		
			<linearGradient id="SVGID_00000134936329361471948130000004945977350141321882_" gradientUnits="userSpaceOnUse" x1="16.7907" y1="9.2622" x2="18.4388" y2="9.2174">
			<stop  offset="0" style="stop-color:#3663D8"/>
			<stop  offset="0.56" style="stop-color:#77BEFF"/>
			<stop  offset="0.99" style="stop-color:#00D1FF"/>
		</linearGradient>
		<circle style="fill:url(#SVGID_00000134936329361471948130000004945977350141321882_);" cx="17.6" cy="9.2" r="0.8"/>
		
			<linearGradient id="SVGID_00000049924795201587302130000013630286094590067338_" gradientUnits="userSpaceOnUse" x1="13.0601" y1="10.349" x2="15.4227" y2="10.2848">
			<stop  offset="0" style="stop-color:#3663D8"/>
			<stop  offset="0.56" style="stop-color:#77BEFF"/>
			<stop  offset="0.99" style="stop-color:#00D1FF"/>
		</linearGradient>
		<circle style="fill:url(#SVGID_00000049924795201587302130000013630286094590067338_);" cx="14.2" cy="10.3" r="1.2"/>
		
			<linearGradient id="SVGID_00000076589180115507973610000008790762716666089621_" gradientUnits="userSpaceOnUse" x1="7.6682" y1="13.2929" x2="11.4827" y2="13.1893">
			<stop  offset="0" style="stop-color:#3663D8"/>
			<stop  offset="0.56" style="stop-color:#77BEFF"/>
			<stop  offset="0.99" style="stop-color:#00D1FF"/>
		</linearGradient>
		<circle style="fill:url(#SVGID_00000076589180115507973610000008790762716666089621_);" cx="9.6" cy="13.2" r="1.9"/>
		
			<linearGradient id="SVGID_00000056391834835447554050000010880322412772899723_" gradientUnits="userSpaceOnUse" x1="2.8113" y1="18.794" x2="8.1537" y2="18.6489">
			<stop  offset="0" style="stop-color:#3663D8"/>
			<stop  offset="0.56" style="stop-color:#77BEFF"/>
			<stop  offset="0.99" style="stop-color:#00D1FF"/>
		</linearGradient>
		<circle style="fill:url(#SVGID_00000056391834835447554050000010880322412772899723_);" cx="5.5" cy="18.7" r="2.7"/>
		
			<linearGradient id="SVGID_00000134960302135159666520000009751165103965966976_" gradientUnits="userSpaceOnUse" x1="2.8113" y1="34.0293" x2="8.1537" y2="33.8842">
			<stop  offset="0" style="stop-color:#3663D8"/>
			<stop  offset="0.56" style="stop-color:#77BEFF"/>
			<stop  offset="0.99" style="stop-color:#00D1FF"/>
		</linearGradient>
		<circle style="fill:url(#SVGID_00000134960302135159666520000009751165103965966976_);" cx="5.5" cy="34" r="2.7"/>
		
			<linearGradient id="SVGID_00000054228263240694307670000012412456612632274851_" gradientUnits="userSpaceOnUse" x1="0.7179" y1="26.3836" x2="6.9291" y2="26.2148">
			<stop  offset="0" style="stop-color:#3663D8"/>
			<stop  offset="0.56" style="stop-color:#77BEFF"/>
			<stop  offset="0.99" style="stop-color:#00D1FF"/>
		</linearGradient>
		<circle style="fill:url(#SVGID_00000054228263240694307670000012412456612632274851_);" cx="3.8" cy="26.3" r="3.1"/>
		
			<linearGradient id="SVGID_00000107586014736791332560000000165665994552023954_" gradientUnits="userSpaceOnUse" x1="7.897" y1="39.4052" x2="11.2539" y2="39.4052">
			<stop  offset="0" style="stop-color:#3663D8"/>
			<stop  offset="0.56" style="stop-color:#77BEFF"/>
			<stop  offset="0.99" style="stop-color:#00D1FF"/>
		</linearGradient>
		<circle style="fill:url(#SVGID_00000107586014736791332560000000165665994552023954_);" cx="9.6" cy="39.4" r="1.7"/>
		
			<linearGradient id="SVGID_00000051359488397359771440000008387537569719305144_" gradientUnits="userSpaceOnUse" x1="13.0544" y1="42.6446" x2="15.2768" y2="42.6446">
			<stop  offset="0" style="stop-color:#3663D8"/>
			<stop  offset="0.56" style="stop-color:#77BEFF"/>
			<stop  offset="0.99" style="stop-color:#00D1FF"/>
		</linearGradient>
		<circle style="fill:url(#SVGID_00000051359488397359771440000008387537569719305144_);" cx="14.2" cy="42.6" r="1.1"/>
		
			<linearGradient id="SVGID_00000111888374307474611280000003797182478287084186_" gradientUnits="userSpaceOnUse" x1="16.9111" y1="43.6586" x2="18.514" y2="43.6586">
			<stop  offset="0" style="stop-color:#3663D8"/>
			<stop  offset="0.56" style="stop-color:#77BEFF"/>
			<stop  offset="0.99" style="stop-color:#00D1FF"/>
		</linearGradient>
		<circle style="fill:url(#SVGID_00000111888374307474611280000003797182478287084186_);" cx="17.7" cy="43.7" r="0.8"/>
		
			<linearGradient id="SVGID_00000122683226955978001140000001335488578682308232_" gradientUnits="userSpaceOnUse" x1="2.8564" y1="9.5427" x2="6.6709" y2="9.4391">
			<stop  offset="0" style="stop-color:#3663D8"/>
			<stop  offset="0.56" style="stop-color:#77BEFF"/>
			<stop  offset="0.99" style="stop-color:#00D1FF"/>
		</linearGradient>
		<circle style="fill:url(#SVGID_00000122683226955978001140000001335488578682308232_);" cx="4.8" cy="9.5" r="1.9"/>
		
			<linearGradient id="SVGID_00000031196551422562827780000007489133789490544273_" gradientUnits="userSpaceOnUse" x1="0.4771" y1="13.927" x2="2.8691" y2="13.927">
			<stop  offset="0" style="stop-color:#3663D8"/>
			<stop  offset="0.56" style="stop-color:#77BEFF"/>
			<stop  offset="0.99" style="stop-color:#00D1FF"/>
		</linearGradient>
		<circle style="fill:url(#SVGID_00000031196551422562827780000007489133789490544273_);" cx="1.7" cy="13.9" r="1.2"/>
		
			<linearGradient id="SVGID_00000113350042480044909720000001749508561315689606_" gradientUnits="userSpaceOnUse" x1="-1.157647e-05" y1="17.5243" x2="1.4336" y2="17.5243">
			<stop  offset="0" style="stop-color:#3663D8"/>
			<stop  offset="0.56" style="stop-color:#77BEFF"/>
			<stop  offset="0.99" style="stop-color:#00D1FF"/>
		</linearGradient>
		<circle style="fill:url(#SVGID_00000113350042480044909720000001749508561315689606_);" cx="0.7" cy="17.5" r="0.7"/>
	</g>
	<path class="st36" d="M62,15H48.5v14.7H62c2.7,0,4.7-0.6,6-1.8c1.3-1.2,1.9-3,1.9-5.4v-0.2C69.9,17.4,67.3,15,62,15z M67,22.4
		c0,1.5-0.4,2.6-1.2,3.3c-0.8,0.7-2,1.1-3.8,1.1H51.4v-8.9h10.7c1.7,0,3,0.4,3.8,1.1c0.8,0.7,1.2,1.8,1.2,3.3V22.4z"/>
	
		<linearGradient id="SVGID_00000099624224877785071970000015394735476676682135_" gradientUnits="userSpaceOnUse" x1="45.7037" y1="22.3339" x2="252.0394" y2="22.3339">
		<stop  offset="0" style="stop-color:#3663D8"/>
		<stop  offset="0.56" style="stop-color:#77BEFF"/>
		<stop  offset="0.99" style="stop-color:#00D1FF"/>
	</linearGradient>
	<path style="fill:url(#SVGID_00000099624224877785071970000015394735476676682135_);" d="M62,15H48.5v14.7H62c2.7,0,4.7-0.6,6-1.8
		c1.3-1.2,1.9-3,1.9-5.4v-0.2C69.9,17.4,67.3,15,62,15z M67,22.4c0,1.5-0.4,2.6-1.2,3.3c-0.8,0.7-2,1.1-3.8,1.1H51.4v-8.9h10.7
		c1.7,0,3,0.4,3.8,1.1c0.8,0.7,1.2,1.8,1.2,3.3V22.4z"/>
	<polygon class="st36" points="72.8,29.7 91.4,29.7 91.4,26.8 75.7,26.8 75.7,23.7 91.4,23.7 91.4,20.9 75.7,20.9 75.7,17.9 
		91.4,17.9 91.4,15 72.8,15 	"/>
	
		<linearGradient id="SVGID_00000003083835216732650340000007126737662481931965_" gradientUnits="userSpaceOnUse" x1="45.7037" y1="22.3339" x2="252.0394" y2="22.3339">
		<stop  offset="0" style="stop-color:#3663D8"/>
		<stop  offset="0.56" style="stop-color:#77BEFF"/>
		<stop  offset="0.99" style="stop-color:#00D1FF"/>
	</linearGradient>
	<polygon style="fill:url(#SVGID_00000003083835216732650340000007126737662481931965_);" points="72.8,29.7 91.4,29.7 91.4,26.8 
		75.7,26.8 75.7,23.7 91.4,23.7 91.4,20.9 75.7,20.9 75.7,17.9 91.4,17.9 91.4,15 72.8,15 	"/>
	<polygon class="st36" points="105.6,25.6 96.7,15 93,15 105.6,30 118.1,15 114.4,15 	"/>
	
		<linearGradient id="SVGID_00000183232242291816550540000006718279172761821592_" gradientUnits="userSpaceOnUse" x1="45.7037" y1="22.5002" x2="252.0394" y2="22.5002">
		<stop  offset="0" style="stop-color:#3663D8"/>
		<stop  offset="0.56" style="stop-color:#77BEFF"/>
		<stop  offset="0.99" style="stop-color:#00D1FF"/>
	</linearGradient>
	<polygon style="fill:url(#SVGID_00000183232242291816550540000006718279172761821592_);" points="105.6,25.6 96.7,15 93,15 
		105.6,30 118.1,15 114.4,15 	"/>
	<polygon class="st36" points="119.1,15 119.1,17.9 132.6,17.9 118.5,29.7 139.8,29.7 139.8,26.8 126.1,26.8 140.1,15 	"/>
	
		<linearGradient id="SVGID_00000104702147398560405470000012340524034465832119_" gradientUnits="userSpaceOnUse" x1="45.7037" y1="22.3339" x2="252.0394" y2="22.3339">
		<stop  offset="0" style="stop-color:#3663D8"/>
		<stop  offset="0.56" style="stop-color:#77BEFF"/>
		<stop  offset="0.99" style="stop-color:#00D1FF"/>
	</linearGradient>
	<polygon style="fill:url(#SVGID_00000104702147398560405470000012340524034465832119_);" points="119.1,15 119.1,17.9 132.6,17.9 
		118.5,29.7 139.8,29.7 139.8,26.8 126.1,26.8 140.1,15 	"/>
	<path class="st36" d="M157.3,20.9h-10.5c-0.7,0-1.1-0.1-1.4-0.3c-0.3-0.2-0.4-0.6-0.4-1.1c0-0.5,0.1-0.9,0.4-1.2
		c0.3-0.2,0.8-0.4,1.4-0.4h14.5V15h-14.8c-1.5,0-2.7,0.4-3.4,1.2c-0.7,0.8-1.1,1.8-1.1,3.2c0,1.3,0.4,2.4,1.1,3.2
		c0.7,0.8,1.9,1.2,3.4,1.2h10.4c0.7,0,1.2,0.1,1.6,0.4c0.3,0.2,0.5,0.6,0.5,1.1c0,1.1-0.7,1.6-2,1.6h-14.7v2.9h15.2
		c1.6,0,2.8-0.4,3.5-1.2c0.7-0.8,1.1-1.9,1.1-3.2c0-1.3-0.4-2.4-1.1-3.2C160,21.3,158.8,20.9,157.3,20.9z"/>
	
		<linearGradient id="SVGID_00000173844590912745237070000000300065463796233357_" gradientUnits="userSpaceOnUse" x1="45.7037" y1="22.3339" x2="252.0394" y2="22.3339">
		<stop  offset="0" style="stop-color:#3663D8"/>
		<stop  offset="0.56" style="stop-color:#77BEFF"/>
		<stop  offset="0.99" style="stop-color:#00D1FF"/>
	</linearGradient>
	<path style="fill:url(#SVGID_00000173844590912745237070000000300065463796233357_);" d="M157.3,20.9h-10.5c-0.7,0-1.1-0.1-1.4-0.3
		c-0.3-0.2-0.4-0.6-0.4-1.1c0-0.5,0.1-0.9,0.4-1.2c0.3-0.2,0.8-0.4,1.4-0.4h14.5V15h-14.8c-1.5,0-2.7,0.4-3.4,1.2
		c-0.7,0.8-1.1,1.8-1.1,3.2c0,1.3,0.4,2.4,1.1,3.2c0.7,0.8,1.9,1.2,3.4,1.2h10.4c0.7,0,1.2,0.1,1.6,0.4c0.3,0.2,0.5,0.6,0.5,1.1
		c0,1.1-0.7,1.6-2,1.6h-14.7v2.9h15.2c1.6,0,2.8-0.4,3.5-1.2c0.7-0.8,1.1-1.9,1.1-3.2c0-1.3-0.4-2.4-1.1-3.2
		C160,21.3,158.8,20.9,157.3,20.9z"/>
	<path class="st36" d="M185.2,20.4v-0.1c0-1.8-0.5-3.1-1.5-4c-1-0.9-2.5-1.3-4.6-1.3h-14.5v14.7h2.9v-3.8h11.6
		C183.2,25.8,185.2,24,185.2,20.4z M182.3,20.5c0,0.9-0.2,1.5-0.7,1.9c-0.5,0.4-1.3,0.6-2.4,0.6h-11.6v-5.1h11.6
		c1.1,0,1.9,0.2,2.4,0.6c0.5,0.4,0.7,1,0.7,1.9V20.5z"/>
	
		<linearGradient id="SVGID_00000094598154153781624030000010213207966888620688_" gradientUnits="userSpaceOnUse" x1="45.7037" y1="22.3339" x2="252.0394" y2="22.3339">
		<stop  offset="0" style="stop-color:#3663D8"/>
		<stop  offset="0.56" style="stop-color:#77BEFF"/>
		<stop  offset="0.99" style="stop-color:#00D1FF"/>
	</linearGradient>
	<path style="fill:url(#SVGID_00000094598154153781624030000010213207966888620688_);" d="M185.2,20.4v-0.1c0-1.8-0.5-3.1-1.5-4
		c-1-0.9-2.5-1.3-4.6-1.3h-14.5v14.7h2.9v-3.8h11.6C183.2,25.8,185.2,24,185.2,20.4z M182.3,20.5c0,0.9-0.2,1.5-0.7,1.9
		c-0.5,0.4-1.3,0.6-2.4,0.6h-11.6v-5.1h11.6c1.1,0,1.9,0.2,2.4,0.6c0.5,0.4,0.7,1,0.7,1.9V20.5z"/>
	<path class="st36" d="M183.2,29.7h3.8l2.1-2.6h13.8l2.1,2.6h3.8L196,14.5L183.2,29.7z M191.3,24.4l4.7-5.7l4.7,5.7H191.3z"/>
	
		<linearGradient id="SVGID_00000142175597037599355110000011950257548879027634_" gradientUnits="userSpaceOnUse" x1="45.7037" y1="22.0637" x2="252.0394" y2="22.0637">
		<stop  offset="0" style="stop-color:#3663D8"/>
		<stop  offset="0.56" style="stop-color:#77BEFF"/>
		<stop  offset="0.99" style="stop-color:#00D1FF"/>
	</linearGradient>
	<path style="fill:url(#SVGID_00000142175597037599355110000011950257548879027634_);" d="M183.2,29.7h3.8l2.1-2.6h13.8l2.1,2.6h3.8
		L196,14.5L183.2,29.7z M191.3,24.4l4.7-5.7l4.7,5.7H191.3z"/>
	<path class="st36" d="M208.5,22.3v0.2c0,2.4,0.6,4.2,1.9,5.4c1.3,1.2,3.3,1.8,6,1.8H228v-2.9h-11.6c-1.7,0-3-0.3-3.8-1
		c-0.8-0.7-1.2-1.8-1.2-3.3v-0.2c0-1.5,0.4-2.6,1.2-3.3c0.8-0.7,2-1.1,3.8-1.1H228V15h-11.6C211.1,15,208.5,17.4,208.5,22.3z"/>
	
		<linearGradient id="SVGID_00000080907994150499629910000009138977511271685010_" gradientUnits="userSpaceOnUse" x1="45.7037" y1="22.3339" x2="252.0394" y2="22.3339">
		<stop  offset="0" style="stop-color:#3663D8"/>
		<stop  offset="0.56" style="stop-color:#77BEFF"/>
		<stop  offset="0.99" style="stop-color:#00D1FF"/>
	</linearGradient>
	<path style="fill:url(#SVGID_00000080907994150499629910000009138977511271685010_);" d="M208.5,22.3v0.2c0,2.4,0.6,4.2,1.9,5.4
		c1.3,1.2,3.3,1.8,6,1.8H228v-2.9h-11.6c-1.7,0-3-0.3-3.8-1c-0.8-0.7-1.2-1.8-1.2-3.3v-0.2c0-1.5,0.4-2.6,1.2-3.3
		c0.8-0.7,2-1.1,3.8-1.1H228V15h-11.6C211.1,15,208.5,17.4,208.5,22.3z"/>
	<polygon class="st36" points="231,29.7 249.6,29.7 249.6,26.8 233.9,26.8 233.9,23.7 249.6,23.7 249.6,20.9 233.9,20.9 233.9,17.9 
		249.6,17.9 249.6,15 231,15 	"/>
	
		<linearGradient id="SVGID_00000069397855995305730010000001605670586750762400_" gradientUnits="userSpaceOnUse" x1="45.7037" y1="22.3339" x2="252.0394" y2="22.3339">
		<stop  offset="0" style="stop-color:#3663D8"/>
		<stop  offset="0.56" style="stop-color:#77BEFF"/>
		<stop  offset="0.99" style="stop-color:#00D1FF"/>
	</linearGradient>
	<polygon style="fill:url(#SVGID_00000069397855995305730010000001605670586750762400_);" points="231,29.7 249.6,29.7 249.6,26.8 
		233.9,26.8 233.9,23.7 249.6,23.7 249.6,20.9 233.9,20.9 233.9,17.9 249.6,17.9 249.6,15 231,15 	"/>
</g>
</svg>
