<?xml version="1.0" encoding="UTF-8"?>
<svg xmlns="http://www.w3.org/2000/svg" xmlns:xlink="http://www.w3.org/1999/xlink" width="1400" zoomAndPan="magnify" viewBox="0 0 1050 749.999995" height="1000" preserveAspectRatio="xMidYMid meet" version="1.0">
  <path fill="#000000" d="M 763.328125 450.664062 L 763.328125 262.609375 L 691.605469 262.609375 L 691.605469 291.9375 L 713.296875 296.621094 L 713.296875 347.148438 C 709.105469 341.230469 703.929688 336.546875 697.769531 332.851562 C 691.359375 329.402344 683.964844 327.675781 676.574219 327.921875 C 665.480469 327.675781 654.636719 331.125 646.011719 337.78125 C 636.890625 345.175781 629.988281 354.789062 626.292969 365.878906 C 621.363281 379.1875 618.898438 393.484375 619.390625 407.777344 L 619.390625 410.734375 C 618.652344 424.292969 621.117188 437.847656 626.046875 450.664062 C 630.238281 461.507812 636.890625 470.875 645.765625 477.527344 C 654.882812 483.9375 665.972656 487.386719 677.066406 487.140625 C 684.953125 487.386719 692.839844 485.414062 699.742188 481.71875 C 706.394531 477.527344 712.0625 472.105469 716.253906 465.453125 L 719.949219 484.429688 L 781.320312 484.429688 L 781.320312 455.101562 Z M 713.296875 439.324219 C 711.078125 442.53125 708.121094 444.746094 704.175781 446.71875 C 700.234375 448.691406 696.535156 448.9375 692.59375 448.9375 C 683.964844 448.9375 677.804688 445.734375 674.355469 439.078125 C 670.902344 432.425781 669.179688 423.058594 669.179688 410.734375 L 669.179688 407.777344 C 669.179688 400.382812 669.671875 392.988281 671.398438 385.84375 C 672.628906 380.421875 675.09375 375.242188 679.035156 371.300781 C 682.734375 367.851562 687.664062 365.878906 692.839844 366.125 C 697.027344 366.125 700.972656 367.109375 704.421875 369.082031 C 707.875 371.300781 711.078125 374.257812 713.050781 378.203125 Z M 713.296875 439.324219 " fill-opacity="1" fill-rule="nonzero"></path>
  <path fill="#000000" d="M 558.019531 395.207031 L 593.265625 365.878906 L 612.984375 359.964844 L 612.984375 330.386719 L 524.75 330.386719 L 524.75 359.222656 L 540.277344 361.933594 L 505.03125 392.496094 L 505.03125 262.609375 L 433.554688 262.609375 L 433.554688 291.9375 L 455.246094 296.621094 L 455.246094 451.15625 L 434.046875 456.332031 L 412.851562 451.15625 L 412.851562 262.609375 L 341.375 262.609375 L 341.375 291.9375 L 363.066406 296.621094 L 363.066406 347.148438 C 358.875 341.230469 353.699219 336.546875 347.539062 332.851562 C 341.128906 329.402344 333.734375 327.675781 326.339844 327.921875 C 315.25 327.675781 304.40625 331.125 295.78125 337.78125 C 286.660156 345.175781 279.757812 354.789062 276.0625 365.878906 C 271.132812 379.1875 268.667969 393.484375 269.160156 408.023438 L 269.160156 410.980469 C 268.914062 424.785156 271.132812 438.339844 276.0625 451.15625 C 280.253906 462 286.90625 471.367188 295.78125 478.019531 C 304.898438 484.429688 315.988281 487.878906 327.082031 487.632812 C 334.96875 487.878906 342.855469 485.90625 349.757812 482.210938 C 356.410156 478.019531 362.078125 472.597656 366.269531 465.945312 L 369.964844 484.921875 L 434.789062 485.90625 L 520.558594 484.921875 L 520.558594 455.347656 L 506.015625 450.664062 L 506.015625 439.078125 L 524.253906 424.042969 L 544.710938 453.375 L 544.710938 453.867188 L 535.347656 457.070312 L 535.347656 484.183594 L 616.925781 484.183594 L 616.925781 455.101562 L 599.675781 449.925781 Z M 362.820312 439.324219 C 360.601562 442.53125 357.644531 444.746094 353.699219 446.71875 C 350.003906 448.445312 346.304688 448.9375 342.117188 448.9375 C 333.488281 448.9375 327.328125 445.734375 323.878906 439.078125 C 320.425781 432.425781 318.703125 423.058594 318.703125 410.734375 L 318.703125 407.777344 C 318.703125 400.382812 319.195312 392.988281 320.917969 385.84375 C 322.152344 380.421875 324.617188 375.242188 328.558594 371.300781 C 332.257812 367.851562 337.1875 365.878906 342.363281 366.125 C 346.550781 366.125 350.496094 367.109375 353.945312 369.082031 C 357.398438 371.300781 360.601562 374.257812 362.574219 378.203125 L 362.574219 439.324219 Z M 362.820312 439.324219 " fill-opacity="1" fill-rule="nonzero"></path>
</svg>
