<?xml version="1.0" encoding="UTF-8"?>
<svg xmlns="http://www.w3.org/2000/svg" xmlns:xlink="http://www.w3.org/1999/xlink" version="1.1" id="Ebene_1" x="0px" y="0px" width="595.276px" height="595.275px" viewBox="0 0 595.276 595.275" style="enable-background:new 0 0 595.276 595.275;" xml:space="preserve">
<g>
	<defs>
		<rect id="SVGID_1_" y="0" width="595.276" height="595.276"></rect>
	</defs>
	<clipPath id="SVGID_2_">
		<use xlink:href="#SVGID_1_" style="overflow:visible;"></use>
	</clipPath>
	<path style="clip-path:url(#SVGID_2_);" d="M108.818,118.886c-39.409,0-77.027,25.973-94.044,92.252h138.827   c17.018,0,24.183-4.478,24.183-12.539C177.784,177.999,167.036,118.886,108.818,118.886 M441.461,301.224   c4.25,0,8.5-0.18,11.936-3.164c3.255-2.622,4.792-6.691,4.792-10.76c0-5.064-2.351-10.128-7.232-12.298   c-3.617-1.718-8.229-1.537-12.207-1.537h-2.804v27.759H441.461z M495.352,311.08h26.674l-13.292-32.914L495.352,311.08z    M577.996,333.505v4.068h-21.701v-68.178h4.34v64.109H577.996z M537.217,337.573h-4.431l-9.133-22.425h-29.93l-9.132,22.425h-4.431   l28.572-70.438L537.217,337.573z M442.998,305.293l22.335,32.28h-4.975l-22.243-32.28h-2.17v32.28h-4.341v-68.178h8.5   c5.517,0,10.941,0.091,15.552,3.436c4.884,3.436,6.873,8.862,6.873,14.649C462.529,299.324,454.301,305.474,442.998,305.293    M412.436,273.465h-17.632v64.108h-4.34v-64.108h-17.632v-4.069h39.604V273.465z M353.663,339.834l-57.236-60.854v58.593h-4.341   v-69.082l57.236,60.401v-59.497h4.341V339.834z M267.493,337.573h-32.552v-68.178h32.552v4.069h-28.212v24.776h27.488v4.069   h-27.488v31.195h28.212V337.573z M210.979,329.978c-6.419,5.335-14.286,8.5-22.696,8.5c-18.988,0-35.535-15.824-35.535-34.903   c0-19.35,16.276-35.083,35.626-35.083c8.228,0,16.547,3.255,22.605,8.861v5.968c-5.244-6.42-14.467-10.76-22.876-10.76   c-16.999,0-31.015,14.648-31.015,31.376c0,7.957,3.436,15.462,9.133,21.068c5.696,5.426,13.834,9.403,21.882,9.403   c7.866,0,17.813-4.25,22.876-10.397V329.978z M594.818,297.638C594.818,133.257,461.562,0,297.181,0   c-86.672,0-164.68,37.058-219.075,96.18c15.719-3.123,31.724-4.164,47.73-4.164c103.001,0,131.662,96.731,131.662,131.662   c0,12.539-10.748,14.33-25.079,14.33H11.191C9.4,246.068,8.504,260.399,8.504,281c0,87.774,55.531,154.053,127.184,154.053   c54.635,0,93.149-31.348,108.375-60.905c1.791-3.583,5.374-5.374,8.061-4.478l11.643,6.269c2.687,0.896,4.478,3.583,0,13.436   c-16.122,35.826-62.696,97.627-142.41,97.627c-19.785,0-40.374-2.303-60.105-7.919c54.419,70.655,139.85,116.193,235.929,116.193   C461.562,595.275,594.818,462.019,594.818,297.638"></path>
</g>
</svg>
