<?xml version="1.0" encoding="UTF-8"?>
<svg xmlns="http://www.w3.org/2000/svg" id="Layer_17" data-name="Layer 17" viewBox="0 0 1001.21 441.11">
  <defs>
    <style>.cls-1{fill:#20282d;}</style>
  </defs>
  <path class="cls-1" d="M522.87,230.11s20.88-27.22,21.25-37.62c.43-12-5.09-20.33-17.38-20.33-12.47,0-18.77,9.13-18.77,22.5a73.71,73.71,0,0,0,1.11,10.69H478.79a51.85,51.85,0,0,1-1.56-12.48c0-24.27,17.66-48.55,50-48.55,29.4,0,47.12,20.05,47.12,47,0,22-15,38.57-29.83,57.52L529.57,268.2h49V294H473.69Z"></path>
  <path class="cls-1" d="M201,294H170.9V147H201Z"></path>
  <polygon class="cls-1" points="195.14 220.54 252.13 147.04 287.99 147.04 231.64 220.54 287.99 294.04 252.13 294.04 195.14 220.54"></polygon>
  <path class="cls-1" d="M695.25,294.06H659.4l56.33-73.51L659.4,147h35.85l57,73.53Z"></path>
  <path class="cls-1" d="M773.34,294.06H737.5l56.32-73.51L737.5,147h35.84l57,73.53Z"></path>
  <polygon class="cls-1" points="422.71 213.24 422.71 294.04 452.78 294.04 452.78 147.04 437.83 147.04 380.82 220.5 323.85 147.04 308.9 147.04 308.9 294.04 338.97 294.04 338.97 213.28 380.84 267.68 422.71 213.24"></polygon>
</svg>
