<?xml version="1.0" encoding="UTF-8"?>
<svg xmlns="http://www.w3.org/2000/svg" id="Ebene_1" data-name="Ebene 1" viewBox="0 0 600 400">
  <g id="P2425_copy_2" data-name="P2425 copy 2">
    <g>
      <path d="M351.17,107.5c-3.2,1.69-6.8,2.49-10.42,2.49h-83.74c-16.88,0-21.04,8.6-21.04,8.6-1.07-16.06,4.18-24.4,9.71-28.72,3.96-3.1,8.93-4.63,13.96-4.63h83.5c16.88,0,21.04-8.6,21.04-8.6,1.29,19.27-6.55,27.42-13.02,30.86h0ZM364.19,169.97s-4.17,8.6-21.04,8.6h-83.5c-5.03,0-10,1.53-13.96,4.63-5.53,4.32-10.79,12.66-9.71,28.72,0,0,4.17-8.6,21.04-8.6h83.74c3.62,0,7.22-.79,10.42-2.49,6.47-3.44,14.31-11.59,13.02-30.86h0ZM248.98,154.17c3.2,1.69,6.8,2.49,10.42,2.49h83.74c16.88,0,21.04,8.6,21.04,8.6,1.07-16.06-4.18-24.4-9.71-28.72-3.96-3.1-8.93-4.63-13.96-4.63h-83.5c-16.88,0-21.04-8.6-21.04-8.6-1.29,19.27,6.55,27.42,13.02,30.86h0Z"></path>
      <path d="M56.77,268.67c-1.88-2.12-4.37-3.85-7.51-5.16-3.13-1.31-6.69-1.97-10.7-1.97-5.88,0-10.16,1.11-12.85,3.33-2.69,2.22-4.03,5.24-4.03,9.05,0,2,.36,3.64,1.08,4.92.72,1.28,1.83,2.39,3.33,3.33s3.42,1.75,5.77,2.44,5.11,1.38,8.3,2.06c3.56.75,6.77,1.6,9.62,2.53,2.85.94,5.27,2.11,7.27,3.52,2,1.41,3.53,3.11,4.6,5.11s1.6,4.5,1.6,7.51-.6,5.72-1.78,7.97-2.85,4.13-4.97,5.63c-2.12,1.5-4.66,2.61-7.6,3.33-2.94.72-6.16,1.08-9.66,1.08-7.89,0-14.96-1.88-21.2-5.65-1.92-1.16-3.77-2.5-5.54-4.02l3.28-5.34c1.19,1.25,2.61,2.44,4.27,3.56,1.65,1.13,3.5,2.11,5.54,2.96,2.03.84,4.21,1.5,6.52,1.97s4.75.7,7.32.7c5.31,0,9.46-.95,12.43-2.86,2.97-1.91,4.45-4.8,4.45-8.68,0-2.07-.42-3.8-1.26-5.21s-2.11-2.62-3.8-3.66c-1.69-1.03-3.79-1.92-6.28-2.67-2.51-.75-5.41-1.5-8.72-2.25-3.5-.81-6.57-1.65-9.19-2.53-2.62-.87-4.84-1.97-6.66-3.28s-3.17-2.89-4.08-4.74c-.91-1.85-1.36-4.11-1.36-6.8,0-3.06.58-5.8,1.73-8.21,1.15-2.41,2.8-4.41,4.92-6,2.12-1.6,4.63-2.82,7.51-3.66,2.88-.84,6.07-1.26,9.57-1.26,4.44,0,8.4.68,11.87,2.02,3.47,1.34,6.62,3.24,9.42,5.68l-3.19,5.25h0Z"></path>
      <path d="M98.89,317.35c4.19,0,7.67-.8,10.46-2.39,2.78-1.6,5-3.69,6.66-6.28,1.65-2.59,2.82-5.55,3.47-8.87.66-3.32.99-6.66.99-10.04v-33.58h6.57v33.58c0,4.5-.5,8.77-1.5,12.8s-2.61,7.59-4.83,10.65c-2.22,3.06-5.11,5.5-8.68,7.32-3.56,1.81-7.91,2.72-13.04,2.72s-9.68-.95-13.27-2.86c-3.59-1.91-6.49-4.42-8.68-7.55s-3.75-6.69-4.69-10.7c-.94-4-1.41-8.13-1.41-12.38v-33.58h6.47v33.58c0,3.5.34,6.91,1.03,10.23.68,3.32,1.86,6.25,3.52,8.82s3.86,4.63,6.62,6.19c2.75,1.57,6.19,2.35,10.32,2.35h0Z"></path>
      <path d="M187.75,262.01h-23.73v60.79h-6.57v-60.79h-23.73v-5.81h54.03v5.81h0Z"></path>
      <path d="M218.12,323.26c-4.63,0-8.87-.95-12.71-2.86-3.85-1.91-7.14-4.44-9.89-7.6s-4.88-6.77-6.38-10.83-2.25-8.22-2.25-12.48.8-8.69,2.39-12.76c1.6-4.06,3.8-7.66,6.62-10.78,2.82-3.13,6.12-5.61,9.94-7.46,3.82-1.85,7.95-2.77,12.38-2.77s8.87.99,12.71,2.96c3.85,1.97,7.13,4.55,9.85,7.74,2.72,3.19,4.83,6.8,6.33,10.83,1.5,4.03,2.25,8.14,2.25,12.34,0,4.44-.8,8.69-2.39,12.76-1.6,4.06-3.79,7.64-6.57,10.74-2.78,3.09-6.08,5.57-9.89,7.41-3.82,1.85-7.95,2.77-12.38,2.77h0ZM193.45,289.49c0,3.63.6,7.12,1.78,10.46,1.19,3.35,2.88,6.31,5.07,8.92,2.19,2.59,4.79,4.66,7.79,6.19,3,1.53,6.35,2.3,10.04,2.3s7.16-.81,10.23-2.44c3.06-1.62,5.66-3.75,7.79-6.38,2.12-2.62,3.77-5.6,4.92-8.91,1.15-3.32,1.73-6.69,1.73-10.13,0-3.63-.61-7.11-1.83-10.46-1.22-3.35-2.93-6.3-5.11-8.87-2.19-2.56-4.79-4.61-7.79-6.15-3.01-1.53-6.31-2.3-9.94-2.3s-7.16.8-10.23,2.39c-3.06,1.6-5.66,3.71-7.79,6.33-2.12,2.62-3.77,5.6-4.92,8.92-1.16,3.32-1.73,6.69-1.73,10.13h0Z"></path>
      <path d="M259.83,322.79v-66.6h28.14c2.88,0,5.52.61,7.93,1.83s4.49,2.82,6.24,4.78c1.75,1.97,3.11,4.21,4.08,6.7.97,2.51,1.46,5.03,1.46,7.6s-.36,4.77-1.08,6.99c-.72,2.22-1.72,4.22-3,6s-2.83,3.28-4.64,4.5-3.85,2.05-6.1,2.49l16.32,25.7h-7.41l-15.67-24.58h-19.7v24.58h-6.57.02ZM266.4,292.4h21.76c1.94,0,3.71-.42,5.3-1.26,1.6-.84,2.95-1.98,4.08-3.42,1.12-1.44,2-3.06,2.62-4.88.63-1.81.94-3.72.94-5.72s-.36-3.92-1.08-5.77c-.72-1.85-1.69-3.45-2.91-4.83-1.22-1.38-2.66-2.47-4.32-3.28-1.65-.81-3.4-1.22-5.21-1.22h-21.2v30.39l.02-.02Z"></path>
      <path d="M395.1,305.63c0,2.51-.5,4.8-1.5,6.9s-2.35,3.91-4.03,5.44c-1.69,1.53-3.66,2.72-5.91,3.56s-4.66,1.26-7.22,1.26h-31.42v-66.6h32.08c2.31,0,4.41.5,6.28,1.5s3.47,2.3,4.79,3.89c1.31,1.6,2.33,3.41,3.05,5.44.72,2.04,1.08,4.08,1.08,6.15,0,3.38-.84,6.46-2.53,9.24-1.69,2.78-4.03,4.87-7.04,6.24,3.82,1.12,6.83,3.22,9.05,6.28s3.33,6.63,3.33,10.7h0ZM351.57,261.92v24.58h22.89c1.62,0,3.14-.34,4.55-1.03,1.41-.68,2.61-1.6,3.61-2.72s1.78-2.43,2.35-3.89c.56-1.47.84-3.01.84-4.64s-.26-3.28-.8-4.78c-.53-1.5-1.28-2.8-2.25-3.9-.97-1.09-2.11-1.97-3.42-2.62-1.31-.66-2.75-.99-4.32-.99h-23.45ZM388.53,304.51c0-1.62-.28-3.21-.84-4.74s-1.36-2.88-2.39-4.03c-1.03-1.15-2.25-2.09-3.66-2.82-1.41-.72-2.93-1.08-4.55-1.08h-25.51v25.24h24.86c1.69,0,3.27-.34,4.74-1.03,1.47-.68,2.75-1.61,3.85-2.77,1.09-1.15,1.96-2.5,2.58-4.03.63-1.53.94-3.11.94-4.74h0Z"></path>
      <path d="M425.23,256.19h5.54l27.67,66.6h-6.94l-8.63-20.82h-29.92l-8.53,20.82h-7.04l27.86-66.6h0ZM441.36,296.81l-13.42-32.93-13.6,32.93h27.02Z"></path>
      <path d="M471.99,268.39v54.41h-6.57v-66.6h5.07l44.08,55.44v-55.35h6.57v66.5h-5.72l-43.43-54.41Z"></path>
      <path d="M535.63,322.79v-66.5h6.57v38.64l36.68-38.74h7.22l-27.2,29.27,28.61,37.33h-7.22l-25.51-33.49-12.57,13.04v20.45h-6.58Z"></path>
    </g>
  </g>
</svg>
