<?xml version="1.0" encoding="UTF-8"?>
<svg xmlns="http://www.w3.org/2000/svg" xmlns:xlink="http://www.w3.org/1999/xlink" version="1.1" x="0px" y="0px" viewBox="0 0 353.5 372.4" style="enable-background:new 0 0 353.5 372.4;" xml:space="preserve">
<style type="text/css">
	.st0{display:none;}
</style>
<g id="Ebene_2" class="st0">
</g>
<g id="WHITE">
	<g id="Ebene_3">
		<polygon points="148.8,20.8 27,20.8 43.2,49.2 43.2,49.2 89.1,128.3 106.7,97.9 78.5,49.2 132.4,49.2   "></polygon>
		<polygon points="209.4,20.7 225.4,49.2 280.4,49.2 179.6,223.8 154.2,180.2 119.1,180.2 179.5,284.9 197.2,254.2 197.2,254.2     315.5,49.3 332,20.8   "></polygon>
		<g>
			<path d="M39.6,347.2l0.6,3L41,347l8.5-27.1h3.3l8.4,26.9l0.9,3.7l0.8-3.4l7.3-27.2h4.1L64,355.3h-3.3l-9.1-28.1l-0.4-1.9l-0.4,2     l-8.9,28h-3.3l-10.3-35.4h4L39.6,347.2z"></path>
			<path d="M95.3,356c-3,0-5.7-0.7-8.2-2.2c-2.4-1.5-4.3-3.5-5.7-6.2c-1.4-2.6-2-5.6-2-8.9v-1.4c0-3.4,0.7-6.5,2-9.2     s3.2-4.9,5.5-6.4c2.4-1.6,4.9-2.3,7.7-2.3c4.3,0,7.7,1.5,10.2,4.4s3.8,6.9,3.8,12v2.2H83.3v0.8c0,4,1.1,7.4,3.5,10     c2.3,2.7,5.2,4,8.7,4c2.1,0,3.9-0.4,5.5-1.1c1.6-0.8,3.1-2,4.4-3.7l2.5,1.9C105,353.9,100.8,356,95.3,356z M94.6,322.6     c-2.9,0-5.4,1.1-7.4,3.2c-2,2.2-3.2,5.1-3.7,8.7h21.2v-0.4c-0.1-3.4-1.1-6.2-2.9-8.3S97.6,322.6,94.6,322.6z"></path>
			<path d="M144.7,338c0,5.5-1.2,9.9-3.7,13.1c-2.4,3.2-5.7,4.9-9.8,4.9c-4.9,0-8.7-1.8-11.2-5.5l-0.2,4.8h-3.7v-50.2h3.9v20     c2.5-3.9,6.2-5.8,11.1-5.8c4.2,0,7.5,1.6,9.9,4.8c2.4,3.2,3.6,7.6,3.6,13.3L144.7,338L144.7,338z M140.8,337.3     c0-4.7-0.9-8.3-2.7-10.8s-4.4-3.8-7.7-3.8c-2.5,0-4.6,0.6-6.4,1.8c-1.7,1.2-3.1,3-4,5.4v16c2,4.4,5.4,6.7,10.4,6.7     c3.2,0,5.8-1.3,7.6-3.8C139.9,346.2,140.8,342.4,140.8,337.3z"></path>
			<path d="M165.5,335.9h-15.7v-3.3h15.7V335.9z"></path>
			<path d="M183.5,349.9l10.8-30h4l-13.2,35.4h-3.2l-13.3-35.4h4L183.5,349.9z"></path>
			<path d="M204.5,309.7c0-0.7,0.2-1.4,0.7-1.9s1.1-0.8,2-0.8c0.8,0,1.5,0.3,2,0.8s0.7,1.1,0.7,1.9c0,0.7-0.2,1.4-0.7,1.9     s-1.2,0.7-2,0.7s-1.5-0.2-2-0.7C204.8,311,204.5,310.4,204.5,309.7z M209.1,355.3h-3.9v-35.4h3.9V355.3z"></path>
			<path d="M241,346.3c0-1.9-0.8-3.5-2.3-4.7c-1.6-1.2-3.9-2.1-7-2.8c-3.1-0.7-5.6-1.4-7.3-2.3s-3-1.9-3.9-3.2     c-0.8-1.2-1.3-2.7-1.3-4.5c0-2.8,1.2-5.1,3.5-6.9s5.3-2.7,9-2.7c3.9,0,7.1,1,9.5,2.9c2.4,2,3.6,4.5,3.6,7.6h-3.9     c0-2.1-0.9-3.8-2.6-5.2s-3.9-2.1-6.6-2.1c-2.6,0-4.6,0.6-6.2,1.7c-1.6,1.1-2.3,2.6-2.3,4.5c0,1.8,0.6,3.1,1.9,4.1     c1.3,1,3.7,1.9,7.1,2.7c3.4,0.8,6,1.7,7.7,2.6s3,2,3.8,3.3s1.2,2.8,1.2,4.7c0,3-1.2,5.4-3.6,7.2c-2.4,1.8-5.6,2.7-9.4,2.7     c-4.1,0-7.5-1-10-3s-3.8-4.5-3.8-7.6h3.9c0.2,2.3,1.1,4.1,2.9,5.3s4.1,1.9,7,1.9c2.7,0,4.9-0.6,6.6-1.8     C240.1,349.7,241,348.1,241,346.3z"></path>
			<path d="M253.4,309.7c0-0.7,0.2-1.4,0.7-1.9s1.1-0.8,2-0.8c0.8,0,1.5,0.3,2,0.8s0.7,1.1,0.7,1.9c0,0.7-0.2,1.4-0.7,1.9     s-1.2,0.7-2,0.7c-0.8,0-1.5-0.2-2-0.7C253.7,311,253.4,310.4,253.4,309.7z M258.1,355.3h-3.9v-35.4h3.9V355.3z"></path>
			<path d="M266.5,337.1c0-3.4,0.7-6.5,2-9.2s3.2-4.8,5.6-6.4c2.4-1.5,5.1-2.3,8.2-2.3c4.7,0,8.5,1.7,11.4,5s4.4,7.7,4.4,13.1v0.8     c0,3.4-0.7,6.5-2,9.2s-3.2,4.8-5.6,6.3s-5.1,2.2-8.2,2.2c-4.7,0-8.5-1.7-11.4-5s-4.4-7.7-4.4-13.1V337.1z M270.5,338.2     c0,4.2,1.1,7.7,3.3,10.4c2.2,2.7,5.1,4.1,8.6,4.1s6.4-1.4,8.6-4.1s3.3-6.3,3.3-10.7v-0.8c0-2.7-0.5-5.2-1.5-7.4     c-1-2.2-2.4-4-4.2-5.2c-1.8-1.2-3.9-1.8-6.2-1.8c-3.5,0-6.3,1.4-8.5,4.1s-3.3,6.3-3.3,10.7L270.5,338.2L270.5,338.2z"></path>
			<path d="M309.9,319.9l0.1,6.1c1.3-2.2,3-3.8,5-5s4.2-1.7,6.6-1.7c3.8,0,6.6,1.1,8.5,3.2s2.8,5.3,2.8,9.6v23.2H329V332     c0-3.2-0.7-5.5-2-7.1c-1.3-1.5-3.4-2.3-6.3-2.3c-2.4,0-4.6,0.8-6.4,2.3c-1.9,1.5-3.2,3.6-4.1,6.1v24.2h-3.9v-35.4L309.9,319.9     L309.9,319.9z"></path>
		</g>
	</g>
</g>
</svg>
